# xmcd
#
# Track frame offsets:
#	150
#	11140
#	24507
#	37605
#	53330
#	67997
#	81065
#	90960
#	109850
#	130620
#	148792
#	164132
#	185090
#	213805
#	234362
#	253997
#	267582
#	283780
#	297380
#	311777
#
# Disc length: 4372 seconds
#
# Revision: 0
# Processed by: cddbd v1.5.2PL0 Copyright (c) Steve Scherf et al.
# Submitted via: dBpowerAMP V4.0
#
DISCID=1e111214
DTITLE=JULIEN CLERC - SI ON CHANTAIT Julien Clerc
DYEAR=1997
DGENRE=Chanson
TTITLE0=La cavalerie
TTITLE1=Ivanovitch
TTITLE2=La Californie
TTITLE3=Ce n'est rien
TTITLE4=Si on chantait
TTITLE5=Niagara
TTITLE6=Ca commence comme un rêve d'enfant
TTITLE7=This melody
TTITLE8=Terre de France
TTITLE9=Macumba
TTITLE10=Ma préférence
TTITLE11=Jaloux de tout
TTITLE12=L'assassin assassiné
TTITLE13=Quand je joue
TTITLE14=Femmes...je vous aime
TTITLE15=Mélissa
TTITLE16=Fais moi une place
TTITLE17=Utile
TTITLE18=La Belle est arrivée
TTITLE19=Assez-Assez
EXTD=
EXTT0=
EXTT1=
EXTT2=
EXTT3=
EXTT4=
EXTT5=
EXTT6=
EXTT7=
EXTT8=
EXTT9=
EXTT10=
EXTT11=
EXTT12=
EXTT13=
EXTT14=
EXTT15=
EXTT16=
EXTT17=
EXTT18=
EXTT19=
PLAYORDER=
